<svg width="100" height="33" viewBox="0 0 100 33" fill="none" xmlns="http://www.w3.org/2000/svg">
<g filter="url(#filter0_d_14_116)">
<rect x="5" y="5" width="90" height="23" rx="11.5" fill="white"/>
<path d="M38.0059 18.7969C38.0059 18.6211 37.9863 18.4648 37.9473 18.3281C37.9121 18.1875 37.8438 18.0605 37.7422 17.9473C37.6406 17.834 37.4961 17.7227 37.3086 17.6133C37.125 17.5039 36.8867 17.3926 36.5938 17.2793C36.2578 17.1504 35.9434 17.0098 35.6504 16.8574C35.3613 16.7012 35.1055 16.5254 34.8828 16.3301C34.6641 16.1309 34.4922 15.8984 34.3672 15.6328C34.2422 15.3672 34.1797 15.0586 34.1797 14.707C34.1797 14.3594 34.2402 14.043 34.3613 13.7578C34.4863 13.4688 34.6621 13.2207 34.8887 13.0137C35.1191 12.8027 35.3926 12.6406 35.709 12.5273C36.0254 12.4102 36.375 12.3516 36.7578 12.3516C37.3086 12.3516 37.7793 12.4688 38.1699 12.7031C38.5645 12.9375 38.8652 13.252 39.0723 13.6465C39.2832 14.041 39.3887 14.4785 39.3887 14.959H37.9707C37.9707 14.6816 37.9277 14.4355 37.8418 14.2207C37.7559 14.0059 37.623 13.8379 37.4434 13.7168C37.2637 13.5957 37.0312 13.5352 36.7461 13.5352C36.4844 13.5352 36.2676 13.5859 36.0957 13.6875C35.9277 13.7891 35.8027 13.9277 35.7207 14.1035C35.6426 14.2793 35.6035 14.4805 35.6035 14.707C35.6035 14.8633 35.6367 15.0059 35.7031 15.1348C35.7695 15.2598 35.8652 15.375 35.9902 15.4805C36.1152 15.5859 36.2676 15.6855 36.4473 15.7793C36.627 15.873 36.834 15.9629 37.0684 16.0488C37.4668 16.1934 37.8145 16.3535 38.1113 16.5293C38.4082 16.7051 38.6523 16.9023 38.8438 17.1211C39.0391 17.3359 39.1836 17.5801 39.2773 17.8535C39.375 18.127 39.4238 18.4375 39.4238 18.7852C39.4238 19.1367 39.3633 19.457 39.2422 19.7461C39.125 20.0312 38.9531 20.2754 38.7266 20.4785C38.5 20.6816 38.2266 20.8398 37.9062 20.9531C37.5859 21.0625 37.2266 21.1172 36.8281 21.1172C36.4609 21.1172 36.1074 21.0625 35.7676 20.9531C35.4316 20.8438 35.1309 20.6777 34.8652 20.4551C34.5996 20.2285 34.3887 19.9453 34.2324 19.6055C34.0801 19.2656 34.0039 18.8672 34.0039 18.4102H35.4277C35.4277 18.6836 35.4609 18.918 35.5273 19.1133C35.5938 19.3047 35.6895 19.4629 35.8145 19.5879C35.9434 19.709 36.0938 19.7988 36.2656 19.8574C36.4414 19.9121 36.6367 19.9395 36.8516 19.9395C37.1172 19.9395 37.334 19.8926 37.502 19.7988C37.6738 19.7012 37.8008 19.5664 37.8828 19.3945C37.9648 19.2227 38.0059 19.0234 38.0059 18.7969ZM42.0371 14.6602V21H40.6719V14.6602H42.0371ZM40.6016 13.002C40.6016 12.7832 40.668 12.6016 40.8008 12.457C40.9336 12.3086 41.1191 12.2344 41.3574 12.2344C41.5957 12.2344 41.7812 12.3066 41.9141 12.4512C42.0469 12.5957 42.1133 12.7773 42.1133 12.9961C42.1133 13.2109 42.0469 13.3906 41.9141 13.5352C41.7812 13.6797 41.5957 13.752 41.3574 13.752C41.1191 13.752 40.9336 13.6797 40.8008 13.5352C40.668 13.3906 40.6016 13.2129 40.6016 13.002ZM46.877 14.6602H48.1133V21.0234C48.1133 21.5938 48.0078 22.0605 47.7969 22.4238C47.5898 22.791 47.3008 23.0625 46.9297 23.2383C46.5586 23.4141 46.1289 23.502 45.6406 23.502C45.4609 23.502 45.248 23.4727 45.002 23.4141C44.7559 23.3555 44.5156 23.2695 44.2812 23.1562C44.0469 23.043 43.8516 22.9023 43.6953 22.7344L44.1934 21.7852C44.377 21.9727 44.5938 22.1172 44.8438 22.2188C45.0938 22.3242 45.334 22.377 45.5645 22.377C45.8145 22.377 46.0254 22.334 46.1973 22.248C46.373 22.166 46.5078 22.0273 46.6016 21.832C46.6953 21.6406 46.7422 21.3809 46.7422 21.0527V16.0957L46.877 14.6602ZM43.291 18.0879V17.5898C43.291 17.0703 43.3398 16.6211 43.4375 16.2422C43.5352 15.8594 43.6758 15.541 43.8594 15.2871C44.043 15.0332 44.2676 14.8457 44.5332 14.7246C44.7988 14.6035 45.0957 14.543 45.4238 14.543C45.7637 14.543 46.0508 14.6152 46.2852 14.7598C46.5234 14.9004 46.7168 15.1016 46.8652 15.3633C47.0176 15.625 47.1367 15.9375 47.2227 16.3008C47.3086 16.6602 47.3711 17.0625 47.4102 17.5078V18.1992C47.3711 18.6289 47.3047 19.0234 47.2109 19.3828C47.1172 19.7383 46.9902 20.0449 46.8301 20.3027C46.6738 20.5605 46.4785 20.7617 46.2441 20.9062C46.0137 21.0469 45.7363 21.1172 45.4121 21.1172C45.0879 21.1172 44.7949 21.0527 44.5332 20.9238C44.2715 20.7949 44.0469 20.6035 43.8594 20.3496C43.6758 20.0957 43.5352 19.7812 43.4375 19.4062C43.3398 19.0273 43.291 18.5879 43.291 18.0879ZM44.6562 17.5898V18.0879C44.6562 18.4121 44.6777 18.6914 44.7207 18.9258C44.7676 19.1602 44.8359 19.3535 44.9258 19.5059C45.0156 19.6543 45.1328 19.7656 45.2773 19.8398C45.4219 19.9102 45.5938 19.9453 45.793 19.9453C46.0547 19.9453 46.2656 19.8828 46.4258 19.7578C46.5898 19.6328 46.7148 19.4648 46.8008 19.2539C46.8906 19.0391 46.9531 18.8008 46.9883 18.5391V17.1738C46.9688 16.9668 46.9297 16.7754 46.8711 16.5996C46.8164 16.4199 46.7402 16.2637 46.6426 16.1309C46.5488 15.998 46.4316 15.8945 46.291 15.8203C46.1543 15.7422 45.9922 15.7031 45.8047 15.7031C45.6094 15.7031 45.4375 15.7422 45.2891 15.8203C45.1445 15.8945 45.0254 16.0098 44.9316 16.166C44.8379 16.3184 44.7676 16.5137 44.7207 16.752C44.6777 16.9863 44.6562 17.2656 44.6562 17.5898ZM50.832 16.0137V21H49.4668V14.6602H50.75L50.832 16.0137ZM50.5859 17.6016H50.1523C50.1484 17.1445 50.1973 16.7285 50.2988 16.3535C50.4004 15.9785 50.5449 15.6562 50.7324 15.3867C50.9238 15.1172 51.1504 14.9102 51.4121 14.7656C51.6777 14.6172 51.9727 14.543 52.2969 14.543C52.5469 14.543 52.7754 14.5859 52.9824 14.6719C53.1934 14.7539 53.373 14.8887 53.5215 15.0762C53.6699 15.2637 53.7832 15.5078 53.8613 15.8086C53.9434 16.1094 53.9844 16.4766 53.9844 16.9102V21H52.6191V16.8984C52.6191 16.6016 52.5859 16.3672 52.5195 16.1953C52.457 16.0195 52.3633 15.8945 52.2383 15.8203C52.1133 15.7422 51.9551 15.7031 51.7637 15.7031C51.5879 15.7031 51.4258 15.7539 51.2773 15.8555C51.1328 15.9531 51.0078 16.0898 50.9023 16.2656C50.8008 16.4375 50.7227 16.6387 50.668 16.8691C50.6133 17.0957 50.5859 17.3398 50.5859 17.6016ZM58.4844 19.5059V14.6602H59.8496V21H58.5664L58.4844 19.5059ZM58.6777 18.1816L59.1113 18.1699C59.1113 18.5918 59.0723 18.9844 58.9941 19.3477C58.916 19.707 58.7949 20.0195 58.6309 20.2852C58.4707 20.5469 58.2617 20.752 58.0039 20.9004C57.75 21.0449 57.4434 21.1172 57.084 21.1172C56.8262 21.1172 56.5898 21.0723 56.375 20.9824C56.1602 20.8926 55.9746 20.7539 55.8184 20.5664C55.6621 20.3789 55.541 20.1348 55.4551 19.834C55.3691 19.5332 55.3262 19.1738 55.3262 18.7559V14.6602H56.6914V18.7676C56.6914 18.9941 56.7109 19.1836 56.75 19.3359C56.793 19.4844 56.8477 19.6055 56.9141 19.6992C56.9844 19.7891 57.0625 19.8535 57.1484 19.8926C57.2383 19.9277 57.334 19.9453 57.4355 19.9453C57.7441 19.9453 57.9883 19.8691 58.168 19.7168C58.3516 19.5605 58.4824 19.3496 58.5605 19.084C58.6387 18.8184 58.6777 18.5176 58.6777 18.1816ZM62.5801 15.8789V23.4375H61.2207V14.6602H62.4688L62.5801 15.8789ZM65.9902 17.5781V18.082C65.9902 18.5781 65.9453 19.0156 65.8555 19.3945C65.7656 19.7734 65.6328 20.0918 65.457 20.3496C65.2852 20.6035 65.0723 20.7949 64.8184 20.9238C64.5645 21.0527 64.2676 21.1172 63.9277 21.1172C63.6074 21.1172 63.3281 21.0469 63.0898 20.9062C62.8555 20.7656 62.6582 20.5684 62.498 20.3145C62.3379 20.0605 62.209 19.7598 62.1113 19.4121C62.0176 19.0605 61.9492 18.6777 61.9062 18.2637V17.4902C61.9492 17.0527 62.0156 16.6543 62.1055 16.2949C62.1992 15.9316 62.3262 15.6191 62.4863 15.3574C62.6504 15.0957 62.8496 14.8945 63.084 14.7539C63.3184 14.6133 63.5977 14.543 63.9219 14.543C64.2617 14.543 64.5605 14.6035 64.8184 14.7246C65.0762 14.8457 65.291 15.0312 65.4629 15.2812C65.6387 15.5312 65.7695 15.8477 65.8555 16.2305C65.9453 16.6094 65.9902 17.0586 65.9902 17.5781ZM64.625 18.082V17.5781C64.625 17.2539 64.6035 16.9746 64.5605 16.7402C64.5215 16.502 64.4551 16.3066 64.3613 16.1543C64.2715 16.002 64.1562 15.8887 64.0156 15.8145C63.8789 15.7402 63.709 15.7031 63.5059 15.7031C63.3262 15.7031 63.168 15.7402 63.0312 15.8145C62.8945 15.8887 62.7793 15.9922 62.6855 16.125C62.5918 16.2539 62.5176 16.4082 62.4629 16.5879C62.4082 16.7637 62.373 16.9551 62.3574 17.1621V18.5977C62.3926 18.8477 62.4512 19.0781 62.5332 19.2891C62.6152 19.4961 62.7344 19.6621 62.8906 19.7871C63.0508 19.9121 63.2598 19.9746 63.5176 19.9746C63.7168 19.9746 63.8867 19.9355 64.0273 19.8574C64.168 19.7793 64.2812 19.6621 64.3672 19.5059C64.457 19.3496 64.5215 19.1543 64.5605 18.9199C64.6035 18.6816 64.625 18.4023 64.625 18.082Z" fill="black"/>
</g>
<defs>
<filter id="filter0_d_14_116" x="0" y="0" width="100" height="33" filterUnits="userSpaceOnUse" color-interpolation-filters="sRGB">
<feFlood flood-opacity="0" result="BackgroundImageFix"/>
<feColorMatrix in="SourceAlpha" type="matrix" values="0 0 0 0 0 0 0 0 0 0 0 0 0 0 0 0 0 0 127 0" result="hardAlpha"/>
<feOffset/>
<feGaussianBlur stdDeviation="2.5"/>
<feComposite in2="hardAlpha" operator="out"/>
<feColorMatrix type="matrix" values="0 0 0 0 0 0 0 0 0 0 0 0 0 0 0 0 0 0 0.25 0"/>
<feBlend mode="normal" in2="BackgroundImageFix" result="effect1_dropShadow_14_116"/>
<feBlend mode="normal" in="SourceGraphic" in2="effect1_dropShadow_14_116" result="shape"/>
</filter>
</defs>
</svg>
