<svg width="100" height="33" viewBox="0 0 100 33" fill="none" xmlns="http://www.w3.org/2000/svg">
<g filter="url(#filter0_d_2_9)">
<rect x="5" y="5" width="90" height="23" rx="11.5" fill="#EE171F"/>
<path d="M39.5117 18.7969C39.5117 18.6211 39.4922 18.4648 39.4531 18.3281C39.418 18.1875 39.3496 18.0605 39.248 17.9473C39.1465 17.834 39.002 17.7227 38.8145 17.6133C38.6309 17.5039 38.3926 17.3926 38.0996 17.2793C37.7637 17.1504 37.4492 17.0098 37.1562 16.8574C36.8672 16.7012 36.6113 16.5254 36.3887 16.3301C36.1699 16.1309 35.998 15.8984 35.873 15.6328C35.748 15.3672 35.6855 15.0586 35.6855 14.707C35.6855 14.3594 35.7461 14.043 35.8672 13.7578C35.9922 13.4688 36.168 13.2207 36.3945 13.0137C36.625 12.8027 36.8984 12.6406 37.2148 12.5273C37.5312 12.4102 37.8809 12.3516 38.2637 12.3516C38.8145 12.3516 39.2852 12.4688 39.6758 12.7031C40.0703 12.9375 40.3711 13.252 40.5781 13.6465C40.7891 14.041 40.8945 14.4785 40.8945 14.959H39.4766C39.4766 14.6816 39.4336 14.4355 39.3477 14.2207C39.2617 14.0059 39.1289 13.8379 38.9492 13.7168C38.7695 13.5957 38.5371 13.5352 38.252 13.5352C37.9902 13.5352 37.7734 13.5859 37.6016 13.6875C37.4336 13.7891 37.3086 13.9277 37.2266 14.1035C37.1484 14.2793 37.1094 14.4805 37.1094 14.707C37.1094 14.8633 37.1426 15.0059 37.209 15.1348C37.2754 15.2598 37.3711 15.375 37.4961 15.4805C37.6211 15.5859 37.7734 15.6855 37.9531 15.7793C38.1328 15.873 38.3398 15.9629 38.5742 16.0488C38.9727 16.1934 39.3203 16.3535 39.6172 16.5293C39.9141 16.7051 40.1582 16.9023 40.3496 17.1211C40.5449 17.3359 40.6895 17.5801 40.7832 17.8535C40.8809 18.127 40.9297 18.4375 40.9297 18.7852C40.9297 19.1367 40.8691 19.457 40.748 19.7461C40.6309 20.0312 40.459 20.2754 40.2324 20.4785C40.0059 20.6816 39.7324 20.8398 39.4121 20.9531C39.0918 21.0625 38.7324 21.1172 38.334 21.1172C37.9668 21.1172 37.6133 21.0625 37.2734 20.9531C36.9375 20.8438 36.6367 20.6777 36.3711 20.4551C36.1055 20.2285 35.8945 19.9453 35.7383 19.6055C35.5859 19.2656 35.5098 18.8672 35.5098 18.4102H36.9336C36.9336 18.6836 36.9668 18.918 37.0332 19.1133C37.0996 19.3047 37.1953 19.4629 37.3203 19.5879C37.4492 19.709 37.5996 19.7988 37.7715 19.8574C37.9473 19.9121 38.1426 19.9395 38.3574 19.9395C38.623 19.9395 38.8398 19.8926 39.0078 19.7988C39.1797 19.7012 39.3066 19.5664 39.3887 19.3945C39.4707 19.2227 39.5117 19.0234 39.5117 18.7969ZM43.543 14.6602V21H42.1777V14.6602H43.543ZM42.1074 13.002C42.1074 12.7832 42.1738 12.6016 42.3066 12.457C42.4395 12.3086 42.625 12.2344 42.8633 12.2344C43.1016 12.2344 43.2871 12.3066 43.4199 12.4512C43.5527 12.5957 43.6191 12.7773 43.6191 12.9961C43.6191 13.2109 43.5527 13.3906 43.4199 13.5352C43.2871 13.6797 43.1016 13.752 42.8633 13.752C42.625 13.752 42.4395 13.6797 42.3066 13.5352C42.1738 13.3906 42.1074 13.2129 42.1074 13.002ZM48.3828 14.6602H49.6191V21.0234C49.6191 21.5938 49.5137 22.0605 49.3027 22.4238C49.0957 22.791 48.8066 23.0625 48.4355 23.2383C48.0645 23.4141 47.6348 23.502 47.1465 23.502C46.9668 23.502 46.7539 23.4727 46.5078 23.4141C46.2617 23.3555 46.0215 23.2695 45.7871 23.1562C45.5527 23.043 45.3574 22.9023 45.2012 22.7344L45.6992 21.7852C45.8828 21.9727 46.0996 22.1172 46.3496 22.2188C46.5996 22.3242 46.8398 22.377 47.0703 22.377C47.3203 22.377 47.5312 22.334 47.7031 22.248C47.8789 22.166 48.0137 22.0273 48.1074 21.832C48.2012 21.6406 48.248 21.3809 48.248 21.0527V16.0957L48.3828 14.6602ZM44.7969 18.0879V17.5898C44.7969 17.0703 44.8457 16.6211 44.9434 16.2422C45.041 15.8594 45.1816 15.541 45.3652 15.2871C45.5488 15.0332 45.7734 14.8457 46.0391 14.7246C46.3047 14.6035 46.6016 14.543 46.9297 14.543C47.2695 14.543 47.5566 14.6152 47.791 14.7598C48.0293 14.9004 48.2227 15.1016 48.3711 15.3633C48.5234 15.625 48.6426 15.9375 48.7285 16.3008C48.8145 16.6602 48.877 17.0625 48.916 17.5078V18.1992C48.877 18.6289 48.8105 19.0234 48.7168 19.3828C48.623 19.7383 48.4961 20.0449 48.3359 20.3027C48.1797 20.5605 47.9844 20.7617 47.75 20.9062C47.5195 21.0469 47.2422 21.1172 46.918 21.1172C46.5938 21.1172 46.3008 21.0527 46.0391 20.9238C45.7773 20.7949 45.5527 20.6035 45.3652 20.3496C45.1816 20.0957 45.041 19.7812 44.9434 19.4062C44.8457 19.0273 44.7969 18.5879 44.7969 18.0879ZM46.1621 17.5898V18.0879C46.1621 18.4121 46.1836 18.6914 46.2266 18.9258C46.2734 19.1602 46.3418 19.3535 46.4316 19.5059C46.5215 19.6543 46.6387 19.7656 46.7832 19.8398C46.9277 19.9102 47.0996 19.9453 47.2988 19.9453C47.5605 19.9453 47.7715 19.8828 47.9316 19.7578C48.0957 19.6328 48.2207 19.4648 48.3066 19.2539C48.3965 19.0391 48.459 18.8008 48.4941 18.5391V17.1738C48.4746 16.9668 48.4355 16.7754 48.377 16.5996C48.3223 16.4199 48.2461 16.2637 48.1484 16.1309C48.0547 15.998 47.9375 15.8945 47.7969 15.8203C47.6602 15.7422 47.498 15.7031 47.3105 15.7031C47.1152 15.7031 46.9434 15.7422 46.7949 15.8203C46.6504 15.8945 46.5312 16.0098 46.4375 16.166C46.3438 16.3184 46.2734 16.5137 46.2266 16.752C46.1836 16.9863 46.1621 17.2656 46.1621 17.5898ZM52.3379 16.0137V21H50.9727V14.6602H52.2559L52.3379 16.0137ZM52.0918 17.6016H51.6582C51.6543 17.1445 51.7031 16.7285 51.8047 16.3535C51.9062 15.9785 52.0508 15.6562 52.2383 15.3867C52.4297 15.1172 52.6562 14.9102 52.918 14.7656C53.1836 14.6172 53.4785 14.543 53.8027 14.543C54.0527 14.543 54.2812 14.5859 54.4883 14.6719C54.6992 14.7539 54.8789 14.8887 55.0273 15.0762C55.1758 15.2637 55.2891 15.5078 55.3672 15.8086C55.4492 16.1094 55.4902 16.4766 55.4902 16.9102V21H54.125V16.8984C54.125 16.6016 54.0918 16.3672 54.0254 16.1953C53.9629 16.0195 53.8691 15.8945 53.7441 15.8203C53.6191 15.7422 53.4609 15.7031 53.2695 15.7031C53.0938 15.7031 52.9316 15.7539 52.7832 15.8555C52.6387 15.9531 52.5137 16.0898 52.4082 16.2656C52.3066 16.4375 52.2285 16.6387 52.1738 16.8691C52.1191 17.0957 52.0918 17.3398 52.0918 17.6016ZM58.3086 14.6602V21H56.9434V14.6602H58.3086ZM56.873 13.002C56.873 12.7832 56.9395 12.6016 57.0723 12.457C57.2051 12.3086 57.3906 12.2344 57.6289 12.2344C57.8672 12.2344 58.0527 12.3066 58.1855 12.4512C58.3184 12.5957 58.3848 12.7773 58.3848 12.9961C58.3848 13.2109 58.3184 13.3906 58.1855 13.5352C58.0527 13.6797 57.8672 13.752 57.6289 13.752C57.3906 13.752 57.2051 13.6797 57.0723 13.5352C56.9395 13.3906 56.873 13.2129 56.873 13.002ZM61.1152 16.0137V21H59.75V14.6602H61.0332L61.1152 16.0137ZM60.8691 17.6016H60.4355C60.4316 17.1445 60.4805 16.7285 60.582 16.3535C60.6836 15.9785 60.8281 15.6562 61.0156 15.3867C61.207 15.1172 61.4336 14.9102 61.6953 14.7656C61.9609 14.6172 62.2559 14.543 62.5801 14.543C62.8301 14.543 63.0586 14.5859 63.2656 14.6719C63.4766 14.7539 63.6562 14.8887 63.8047 15.0762C63.9531 15.2637 64.0664 15.5078 64.1445 15.8086C64.2266 16.1094 64.2676 16.4766 64.2676 16.9102V21H62.9023V16.8984C62.9023 16.6016 62.8691 16.3672 62.8027 16.1953C62.7402 16.0195 62.6465 15.8945 62.5215 15.8203C62.3965 15.7422 62.2383 15.7031 62.0469 15.7031C61.8711 15.7031 61.709 15.7539 61.5605 15.8555C61.416 15.9531 61.291 16.0898 61.1855 16.2656C61.084 16.4375 61.0059 16.6387 60.9512 16.8691C60.8965 17.0957 60.8691 17.3398 60.8691 17.6016Z" fill="white"/>
</g>
<defs>
<filter id="filter0_d_2_9" x="0" y="0" width="100" height="33" filterUnits="userSpaceOnUse" color-interpolation-filters="sRGB">
<feFlood flood-opacity="0" result="BackgroundImageFix"/>
<feColorMatrix in="SourceAlpha" type="matrix" values="0 0 0 0 0 0 0 0 0 0 0 0 0 0 0 0 0 0 127 0" result="hardAlpha"/>
<feOffset/>
<feGaussianBlur stdDeviation="2.5"/>
<feComposite in2="hardAlpha" operator="out"/>
<feColorMatrix type="matrix" values="0 0 0 0 0 0 0 0 0 0 0 0 0 0 0 0 0 0 0.25 0"/>
<feBlend mode="normal" in2="BackgroundImageFix" result="effect1_dropShadow_2_9"/>
<feBlend mode="normal" in="SourceGraphic" in2="effect1_dropShadow_2_9" result="shape"/>
</filter>
</defs>
</svg>
